PathFileType	4	(X/Y/Z)	C:\Users\Basilio\Documents\Thesis Gigler\squatting_fais\c3dfiles\054\SLS_front_pre3\markers_experimental.trc
DataRate	CameraRate	NumFrames	NumMarkers	Units	OrigDataRate	OrigDataStartFrame	OrigNumFrames
200.000000	200.000000	4	61	mm	200.000000	177	1423
Frame#	Time	FHD			LBHD			RBHD			C7			T10			CLAV			LSHO			LUUPA			LMUPA			LDUPA			LLEP			LMEP			LRAD			LUL			LRFIN			RSHO			RUPA1			RMUPA			RDUPA			RLEP			RMEP			RRAD			RUL			RUFIN			LASI			RASI			USACR			LSACR			RSACR			LTHI1			LTHI2			LTHI3			LTHI4			LLFC			LMFC			LTIB1			LTIB2			LTIB3			LTIB4			LLMAL			LMMAL			LHEE			LMT1			LMT2			LMT5			RTHI			RTHI2			RTHI3			RTHI4			RLFC			RMFC			RTIB1			RTIB2			RTIB3			RTIB4			RLMAL			RMMAL			RHEE			RMT1			RMT2			RMT5			
		X1	Y1	Z1	X2	Y2	Z2	X3	Y3	Z3	X4	Y4	Z4	X5	Y5	Z5	X6	Y6	Z6	X7	Y7	Z7	X8	Y8	Z8	X9	Y9	Z9	X10	Y10	Z10	X11	Y11	Z11	X12	Y12	Z12	X13	Y13	Z13	X14	Y14	Z14	X15	Y15	Z15	X16	Y16	Z16	X17	Y17	Z17	X18	Y18	Z18	X19	Y19	Z19	X20	Y20	Z20	X21	Y21	Z21	X22	Y22	Z22	X23	Y23	Z23	X24	Y24	Z24	X25	Y25	Z25	X26	Y26	Z26	X27	Y27	Z27	X28	Y28	Z28	X29	Y29	Z29	X30	Y30	Z30	X31	Y31	Z31	X32	Y32	Z32	X33	Y33	Z33	X34	Y34	Z34	X35	Y35	Z35	X36	Y36	Z36	X37	Y37	Z37	X38	Y38	Z38	X39	Y39	Z39	X40	Y40	Z40	X41	Y41	Z41	X42	Y42	Z42	X43	Y43	Z43	X44	Y44	Z44	X45	Y45	Z45	X46	Y46	Z46	X47	Y47	Z47	X48	Y48	Z48	X49	Y49	Z49	X50	Y50	Z50	X51	Y51	Z51	X52	Y52	Z52	X53	Y53	Z53	X54	Y54	Z54	X55	Y55	Z55	X56	Y56	Z56	X57	Y57	Z57	X58	Y58	Z58	X59	Y59	Z59	X60	Y60	Z60	X61	Y61	Z61	

178	0.885	-249.953842163086	1795.260864257813	-1090.996337890625	-406.5790100097657	1732.153930664063	-1164.315673828125	-426.5886840820314	1731.664306640625	-1025.37255859375	-446.4303588867189	1558.896606445313	-1080.782470703125	-445.9840393066407	1226.054809570313	-1073.617797851563	-297.9591064453126	1512.325561523438	-1084.975708007813	-378.7897033691407	1554.238159179688	-1239.24169921875	-257.1553039550782	1411.155151367188	-1378.857543945313	-219.7483825683594	1442.4287109375	-1375.155395507813	-192.8860778808594	1394.71484375	-1400.282836914063	-136.3346405029297	1391.49951171875	-1407.402221679688	-135.3034210205078	1328.801879882813	-1358.653686523438	130.095687866211	1392.282592773438	-1359.687255859375	131.7728424072266	1352.588256835938	-1428.0625	217.6033172607422	1400.22607421875	-1388.285400390625	-366.2580261230469	1555.172485351563	-930.9995727539065	-228.0566558837891	1418.547607421875	-797.1140747070315	-189.2816772460938	1446.204467773438	-803.3706054687502	-163.3369598388672	1395.254760742188	-782.1384277343752	-120.0174179077149	1385.051879882813	-780.0817871093752	-125.1176147460938	1331.784423828125	-833.6240844726565	153.5808868408203	1416.057861328125	-861.6358032226565	148.4975738525391	1372.484375	-794.7366333007815	231.5734405517579	1431.940551757813	-840.6768188476565	-234.6361236572266	1064.784545898438	-1171.276977539063	-252.9861755371094	1099.51123046875	-923.0589599609377	-438.864471435547	1136.6103515625	-1061.900146484375	-437.085174560547	1101.711181640625	-1085.396118164063	-442.9861145019532	1107.064575195313	-1028.962036132813	-306.8150329589844	810.3793945312502	-1224.810180664063	-271.2293090820313	733.5133666992189	-1214.624267578125	-224.3666229248047	740.1910400390626	-1209.946411132813	-297.7892150878907	681.9458007812501	-1193.636108398438	-292.6293334960938	530.0196533203126	-1159.866821289063	-261.8716125488282	539.3335571289064	-1024.717407226563	-254.9925079345704	369.9436035156251	-1090.609130859375	-304.0597229003907	318.7174377441407	-1142.836547851563	-266.5877685546876	318.5061950683594	-1117.2880859375	-275.5963439941407	245.6980590820313	-1075.160034179688	-339.1520080566407	113.1576843261719	-1098.743530273438	-307.8360290527344	135.4264831542969	-1009.8076171875	-407.9933471679689	105.5791015625	-1038.394653320313	-197.9403991699219	56.67266845703126	-1017.849243164063	-189.654769897461	53.67272186279298	-1067.032592773438	-242.7433013916016	39.36720657348634	-1117.935424804688	-165.6851959228516	821.6192016601565	-840.4204101562502	-103.0828399658203	799.9832153320315	-849.9038696289065	-78.04412078857423	819.2378540039065	-860.9919433593752	-82.23162841796876	720.2648925781251	-864.272644042969	-48.81125259399415	635.5411376953126	-870.6817016601565	-22.25019264221192	659.6651000976564	-1003.945739746094	38.57411575317384	555.3704223632814	-883.288757324219	1.020605921745301	461.3446655273439	-849.8435668945315	45.38700866699219	470.6888427734376	-861.588073730469	76.17370605468751	430.2628784179689	-888.099792480469	83.83508300781251	246.0858612060547	-870.9748535156252	117.9118423461914	271.9711608886719	-957.8651123046877	37.52976989746094	198.2385711669922	-931.7766113281252	257.3931579589844	229.2297668457032	-932.3767089843752	258.1117248535157	237.9519805908204	-884.9539184570315	212.4480133056641	209.4117889404297	-838.7451171875002	
179	0.89	-249.9429168701172	1795.20703125	-1091.08251953125	-406.6399230957032	1732.1494140625	-1164.414794921875	-426.5974121093751	1731.6708984375	-1025.4296875	-446.5295715332032	1558.878051757813	-1080.864624023438	-446.1044006347657	1225.982299804688	-1073.570922851563	-298.2856140136719	1512.24072265625	-1085.04248046875	-378.9140930175782	1554.171020507813	-1239.30419921875	-257.2384948730469	1411.127685546875	-1378.941772460938	-220.0140686035157	1442.222900390625	-1375.22802734375	-193.0177154541016	1394.633422851563	-1400.39111328125	-136.4744720458985	1391.317260742188	-1407.429321289063	-135.384521484375	1328.631713867188	-1358.722412109375	130.0904846191407	1392.103759765625	-1359.806396484375	131.6562805175782	1352.424682617188	-1428.16015625	217.5249633789063	1399.98828125	-1388.386108398438	-366.3537902832032	1555.174072265625	-931.0463867187502	-228.1185150146485	1418.580810546875	-797.236511230469	-189.3143615722657	1446.203979492188	-803.4674072265627	-163.390869140625	1395.273681640625	-782.2190551757815	-120.1583862304688	1385.02734375	-780.1624145507815	-125.3016357421875	1331.766357421875	-833.6029052734377	153.5149841308594	1416.181030273438	-861.7368774414065	148.5010223388672	1372.484130859375	-794.8557739257815	231.442611694336	1431.889892578125	-840.8018188476565	-234.7149810791016	1064.794921875	-1171.276733398438	-253.0295867919922	1099.500244140625	-923.0964355468752	-438.8833618164064	1136.578735351563	-1061.87255859375	-437.0975646972657	1101.653442382813	-1085.396606445313	-443.0738525390626	1107.0654296875	-1028.942016601563	-306.7975463867188	810.3750610351565	-1224.867431640625	-271.2596740722657	733.4940185546876	-1214.702758789063	-224.3430328369141	740.2280273437501	-1209.97119140625	-297.8025207519532	681.9624633789064	-1193.63525390625	-292.6310424804688	530.0482788085939	-1159.913940429688	-261.9024353027344	539.3333129882814	-1024.726196289063	-255.0236358642579	369.9333190917969	-1090.683715820313	-304.0356445312501	318.7314758300782	-1142.9033203125	-266.8720397949219	318.5869750976563	-1117.279907226563	-275.5139770507813	245.7276306152344	-1075.126586914063	-339.1385192871094	113.1632232666016	-1098.746826171875	-307.8132629394532	135.448486328125	-1009.834716796875	-407.9691467285157	105.5700149536133	-1038.417358398438	-197.9220581054688	56.71254730224611	-1017.886352539063	-189.7136535644532	53.67419433593751	-1067.0810546875	-242.842514038086	39.32116699218751	-1117.939453125	-165.6843719482422	821.5752563476565	-840.441101074219	-103.1114654541016	799.957946777344	-849.9321289062502	-78.05588531494142	819.2212524414065	-861.0142822265627	-82.24452972412111	720.2337646484376	-864.2822875976565	-48.74092864990236	635.5753784179689	-870.707702636719	-22.28739929199219	659.6848754882814	-1003.993347167969	38.72158813476563	555.3658447265626	-883.3608398437502	1.184090375900269	461.3345642089845	-849.8276367187502	45.36385726928712	470.7024536132814	-861.6040039062502	76.29603576660158	430.2985229492189	-888.1295166015627	83.9403533935547	246.0787353515626	-870.985290527344	117.9398727416992	271.9806823730469	-957.8654785156252	37.63376235961915	198.2256927490235	-931.7235107421877	257.5186462402344	229.2823333740235	-932.482360839844	258.1700744628907	237.9868927001954	-885.0227050781252	212.5125274658204	209.4401397705079	-838.7994384765627	
180	0.895	-249.9582519531251	1795.141235351563	-1091.195556640625	-406.6599731445314	1732.143676757813	-1164.559326171875	-426.6306152343751	1731.7099609375	-1025.460693359375	-446.5070800781251	1558.873291015625	-1080.961059570313	-445.7219848632814	1225.866821289063	-1073.6376953125	-298.3840637207032	1512.21142578125	-1085.103515625	-378.9248352050782	1554.1513671875	-1239.377075195313	-257.2614135742188	1411.020385742188	-1379.024536132813	-220.0086212158204	1442.236450195313	-1375.253295898438	-193.1529541015626	1394.507568359375	-1400.43408203125	-136.5960845947266	1391.22412109375	-1407.5048828125	-135.4483947753907	1328.524047851563	-1358.754638671875	129.9207611083985	1391.888793945313	-1359.95849609375	132.070541381836	1352.052001953125	-1428.403076171875	217.8100280761719	1399.595336914063	-1388.349365234375	-366.4902648925782	1555.177001953125	-931.0773925781252	-228.1698608398438	1418.576782226563	-797.2971191406252	-189.3733215332032	1446.219482421875	-803.5388183593752	-163.433578491211	1395.280029296875	-782.352233886719	-120.2283096313477	1385.074340820313	-780.1726684570315	-125.401107788086	1331.7421875	-833.648132324219	153.5289154052735	1416.105712890625	-861.8907470703127	148.4535827636719	1372.44873046875	-794.9869384765627	231.4169616699219	1431.876342773438	-840.9971923828127	-234.7383422851563	1064.755493164063	-1171.334594726563	-253.0378875732422	1099.4931640625	-923.0568847656252	-438.9283142089845	1136.52392578125	-1061.865112304688	-437.0760498046876	1101.640625	-1085.399169921875	-443.1150207519532	1107.008911132813	-1028.946411132813	-306.9240722656251	810.3745727539065	-1224.892211914063	-271.2654724121094	733.5128784179689	-1214.769287109375	-224.3763732910157	740.2194824218751	-1210.043701171875	-297.7955627441407	681.9212646484376	-1193.677978515625	-292.7104187011719	530.0604858398439	-1159.927490234375	-261.8111267089844	539.3444213867189	-1024.813842773438	-255.0260772705079	369.8971252441407	-1090.6953125	-304.0670471191407	318.7191467285157	-1142.957885742188	-266.8498535156251	318.6687927246094	-1117.3662109375	-275.6051940917969	245.6901397705079	-1075.260864257813	-339.1752624511719	113.1516036987305	-1098.770263671875	-307.8300781250001	135.4463043212891	-1009.844177246094	-408.0150146484376	105.5735549926758	-1038.422973632813	-197.899398803711	56.70615005493165	-1017.881530761719	-189.7188415527344	53.64731979370119	-1067.058227539063	-242.8265991210938	39.3269386291504	-1117.977905273438	-165.6595916748047	821.5675048828127	-840.4727172851565	-103.0921173095703	799.9185180664065	-849.9979248046877	-78.05126190185548	819.1878662109377	-860.9887695312502	-82.2614212036133	720.1899414062501	-864.266540527344	-48.70899200439455	635.5739746093751	-870.7169189453127	-22.19449615478516	659.6540527343751	-1003.980041503906	38.75550079345704	555.3635253906251	-883.3680419921877	1.196978807449341	461.3657531738282	-849.597351074219	45.44878005981446	470.6404724121095	-861.434753417969	76.36443328857423	430.3135070800782	-888.1275634765627	84.08770751953126	246.0992279052735	-870.9444580078127	118.0142898559571	271.9523620605469	-957.7702636718752	37.75642013549805	198.2092895507813	-931.7222900390627	257.6777038574219	229.3223876953126	-932.581726074219	258.2912902832032	238.0434875488282	-885.103942871094	212.7050781250001	209.4952239990235	-838.7857055664065	
181	0.9	-250.0277404785157	1795.021362304688	-1091.286010742188	-406.7243041992189	1732.149291992188	-1164.592163085938	-426.6276245117189	1731.69873046875	-1025.528198242188	-446.5923156738282	1558.856201171875	-1081.057495117188	-445.7973632812501	1225.851806640625	-1073.648193359375	-298.4252624511719	1512.20751953125	-1085.1357421875	-379.0726928710938	1554.09326171875	-1239.446533203125	-257.4526672363282	1410.9423828125	-1379.107543945313	-220.2031402587891	1442.069702148438	-1375.31005859375	-193.2330474853516	1394.369018554688	-1400.451293945313	-136.648666381836	1391.06787109375	-1407.589111328125	-135.6848449707032	1328.297241210938	-1358.753051757813	129.8228454589844	1391.707153320313	-1360.038940429688	131.9703826904297	1351.886352539063	-1428.467041015625	217.9188690185547	1399.378662109375	-1388.617797851563	-366.5433349609376	1555.197265625	-931.1512451171877	-228.2259979248047	1418.610229492188	-797.3688964843752	-189.4207763671875	1446.21484375	-803.5776977539065	-163.4906463623047	1395.328979492188	-782.4246215820315	-120.3579940795899	1385.04638671875	-780.2068481445315	-125.5185852050782	1331.710571289063	-833.664733886719	153.3402099609375	1415.837280273438	-861.970886230469	148.3556518554688	1372.425537109375	-795.1043090820315	231.2545166015626	1431.754516601563	-841.108825683594	-234.8211364746094	1064.773315429688	-1171.298095703125	-253.0826110839844	1099.425048828125	-923.040222167969	-438.9737243652345	1136.4912109375	-1061.857055664063	-437.0331420898439	1101.571533203125	-1085.337158203125	-443.1226196289064	1107.006103515625	-1028.928344726563	-306.9834899902344	810.3584594726565	-1224.916625976563	-271.3458557128907	733.5062255859376	-1214.778198242188	-224.4557037353516	740.2241821289064	-1210.106323242188	-297.6647949218751	681.7591552734376	-1193.766723632813	-292.7032165527344	530.0343627929689	-1159.933349609375	-261.8267517089844	539.3779296875001	-1024.840209960938	-255.0251159667969	369.9111022949219	-1090.76611328125	-304.1336059570313	318.7145385742188	-1143.010009765625	-267.1139831542969	318.4399719238282	-1117.300903320313	-275.6414794921876	245.6743621826172	-1075.300415039063	-339.1653747558594	113.1559295654297	-1098.775024414063	-307.8121643066407	135.4705047607422	-1009.914184570313	-408.0194702148439	105.6128463745117	-1038.427734375	-197.9424133300782	56.71452713012697	-1017.896423339844	-189.7147674560547	53.63358306884767	-1067.056396484375	-242.8462829589844	39.32553482055665	-1117.94482421875	-165.7057647705078	821.516540527344	-840.5023193359377	-103.113037109375	799.900085449219	-849.9716796875002	-78.04194641113283	819.1690063476565	-860.989440917969	-82.28393554687501	720.1531372070314	-864.2845458984377	-48.67868423461915	635.5406494140626	-870.7036132812502	-22.24504661560059	659.5951538085939	-1003.99560546875	38.79311752319337	555.3637084960939	-883.3734130859377	1.25086522102356	461.3480224609376	-849.5875244140627	45.52921295166016	470.6516723632814	-861.5108032226565	76.39550018310548	430.3213806152345	-888.1181640625002	84.13340759277345	246.0756988525391	-870.9482421875002	118.0962371826172	272.0248413085938	-957.9249267578127	37.82135009765626	198.2446746826172	-931.6440429687502	257.9527893066407	229.3180541992188	-932.639343261719	258.6976623535157	238.1481628417969	-885.1953125000002	212.8404998779297	209.4410400390626	-838.791198730469	
